<svg xmlns="http://www.w3.org/2000/svg" class="icon" viewBox="0 0 1024 1024" width="200" height="200" t="1572502637208" p-id="538" version="1.1"><path fill="#666666" d="M 670.9 403.2 c 21.9 31.7 33.7 69.3 33.7 108.7 c 0 51.3 -20 99.5 -56.2 135.7 s -84.4 56.2 -135.7 56.2 s -99.5 -20 -135.7 -56.2 c -36.2 -36.2 -56.2 -84.4 -56.2 -135.7 s 20 -99.5 56.2 -135.7 c 32.5 -32.5 74.6 -51.9 119.9 -55.6 l -5.1 -63.8 c -131.6 10.6 -235 120.8 -235 255.1 c 0 141.3 114.6 255.9 255.9 255.9 s 255.9 -114.6 255.9 -255.9 c 0 -53.8 -16.6 -103.6 -44.9 -144.8 l -52.8 36.1 Z" p-id="539" /><path fill="#666666" d="M 512.1 65.3 v 414.9 c -17.7 0 -32 14.3 -32 32 s 14.3 32 32 32 s 32 -14.3 32 -32 c 0 -7.7 -2.7 -14.7 -7.2 -20.2 l 322.4 -261.2 l 0.4 -0.4 c 0.1 0 0.1 -0.1 0.2 -0.1 C 778 129 652.8 64.2 512.4 64.2 h -0.3 v 1.1 Z" p-id="540" /><path fill="#666666" d="M 881.4 259 l -0.4 0.4 c -0.1 0 -0.1 0.1 -0.2 0.1 l -52.1 35.8 c 14.3 21 26.6 43.3 36.5 66.9 c 20 47.2 30.1 97.3 30.1 149 s -10.1 101.9 -30.1 149 c -19.3 45.6 -46.9 86.6 -82.1 121.7 c -35.2 35.2 -76.2 62.8 -121.7 82.1 c -47.2 20 -97.3 30.1 -149 30.1 S 410.5 884 363.4 864 c -45.6 -19.3 -86.6 -46.9 -121.7 -82.1 c -35.2 -35.2 -62.8 -76.2 -82.1 -121.7 c -20 -47.2 -30.1 -97.3 -30.1 -149 s 10.1 -101.9 30.1 -149 c 19.3 -45.6 46.9 -86.6 82.1 -121.7 c 35.2 -35.2 76.2 -62.8 121.7 -82.1 c 37.8 -16 77.5 -25.7 118.4 -28.9 l -5 -62.7 l -0.1 -1.1 C 246.5 83.8 65.4 276.3 65.4 511.2 c 0 246.8 200.1 447 447 447 s 447 -200.1 447 -447 c -0.1 -93.6 -28.8 -180.4 -78 -252.2 Z" p-id="541" /></svg>