<svg xmlns="http://www.w3.org/2000/svg" class="icon" viewBox="0 0 1024 1024" width="200" height="200" t="1572502861633" p-id="804" version="1.1"><path fill="#666666" d="M 924.845 546.435 l -825.859 0 c -19.0151 0 -34.4445 -15.4294 -34.4445 -34.4353 c 0 -19.0151 15.4294 -34.4455 34.4445 -34.4455 l 825.859 0 c 19.0427 0 34.4455 15.4304 34.4455 34.4455 C 959.286 531.006 943.889 546.435 924.845 546.435 L 924.845 546.435 L 924.845 546.435 Z M 856.4 959.723 L 649.761 959.723 c -19.0417 0 -34.4394 -15.4028 -34.4394 -34.4445 c 0 -19.0448 15.3977 -34.4424 34.4394 -34.4424 l 206.639 0 c 19.011 0 34.4414 -15.4294 34.4414 -34.4343 L 890.842 684.198 c 0 -19.0427 15.3915 -34.4404 34.4455 -34.4404 c 19.0427 0 34.4302 15.3977 34.4302 34.4404 l 0 172.203 C 959.722 913.36 913.364 959.723 856.4 959.723 L 856.4 959.723 L 856.4 959.723 Z M 339.802 959.723 L 167.598 959.723 c -56.9572 0 -103.317 -46.364 -103.317 -103.322 L 64.2805 684.198 c 0 -19.0427 15.4315 -34.4404 34.4363 -34.4404 c 19.0151 0 34.4445 15.3977 34.4445 34.4404 l 0 172.203 c 0 19.0048 15.4611 34.4343 34.4363 34.4343 l 172.199 0 c 19.0151 0 34.4455 15.3977 34.4455 34.4424 C 374.242 944.321 358.812 959.723 339.802 959.723 L 339.802 959.723 L 339.802 959.723 Z M 98.7219 374.232 c -19.01 0 -34.4363 -15.4253 -34.4363 -34.4353 L 64.2856 167.598 c 0 -56.9695 46.3547 -103.322 103.312 -103.322 l 172.199 0 c 19.0151 0 34.4455 15.4304 34.4455 34.4394 c 0 19.0059 -15.4304 34.4353 -34.4455 34.4353 L 167.598 133.151 c -18.9752 0 -34.4363 15.4642 -34.4363 34.4465 l 0 172.198 C 133.161 358.807 117.732 374.232 98.7219 374.232 L 98.7219 374.232 L 98.7219 374.232 Z M 925.287 374.232 c -19.054 0 -34.4455 -15.4253 -34.4455 -34.4353 L 890.842 167.598 c 0 -18.9782 -15.4253 -34.4465 -34.4414 -34.4465 L 649.761 133.152 c -19.0417 0 -34.4394 -15.4294 -34.4394 -34.4353 c 0 -19.0089 15.3977 -34.4394 34.4394 -34.4394 l 206.639 0 c 56.9634 0 103.318 46.3527 103.318 103.322 l 0 172.198 C 959.722 358.807 944.33 374.232 925.287 374.232 L 925.287 374.232 L 925.287 374.232 Z M 925.287 374.232" p-id="805" /></svg>